<svg xmlns="http://www.w3.org/2000/svg" xmlns:xlink="http://www.w3.org/1999/xlink" xmlns:inkscape="http://www.inkscape.org/namespaces/inkscape" version="1.1" width="1006.5125" height="745.83627" viewBox="0 0 1006.5125 745.83627">
<defs>
<clipPath id="clip_0">
<path transform="matrix(1,0,0,-1,0,745.83627)" d="M106.5125 73.35625H999.3125V738.6363H106.5125Z"/>
</clipPath>
<clipPath id="clip_1">
<path transform="matrix(1,0,0,-1,147.09432,37.440004)" d="M-12.071068-12.071068H12.071068V12.071068H-12.071068Z"/>
</clipPath>
<clipPath id="clip_2">
<path transform="matrix(1,0,0,-1,169.43292,224.37819)" d="M-12.071068-12.071068H12.071068V12.071068H-12.071068Z"/>
</clipPath>
<clipPath id="clip_3">
<path transform="matrix(1,0,0,-1,333.24946,44.77092)" d="M-12.071068-12.071068H12.071068V12.071068H-12.071068Z"/>
</clipPath>
<clipPath id="clip_4">
<path transform="matrix(1,0,0,-1,333.24946,345.3382)" d="M-12.071068-12.071068H12.071068V12.071068H-12.071068Z"/>
</clipPath>
<clipPath id="clip_5">
<path transform="matrix(1,0,0,-1,392.8191,499.2873)" d="M-12.071068-12.071068H12.071068V12.071068H-12.071068Z"/>
</clipPath>
<clipPath id="clip_6">
<path transform="matrix(1,0,0,-1,392.8191,418.64729)" d="M-12.071068-12.071068H12.071068V12.071068H-12.071068Z"/>
</clipPath>
<clipPath id="clip_7">
<path transform="matrix(1,0,0,-1,899.161,378.32728)" d="M-12.071068-12.071068H12.071068V12.071068H-12.071068Z"/>
</clipPath>
<clipPath id="clip_8">
<path transform="matrix(1,0,0,-1,958.73068,631.24368)" d="M-12.071068-12.071068H12.071068V12.071068H-12.071068Z"/>
</clipPath>
<clipPath id="clip_9">
<path transform="matrix(1,0,0,-1,958.73068,642.24)" d="M-12.071068-12.071068H12.071068V12.071068H-12.071068Z"/>
</clipPath>
<clipPath id="clip_10">
<path transform="matrix(1,0,0,-1,0,745.83627)" d="M106.5125 73.35625H999.3125V738.6363H106.5125Z"/>
</clipPath>
<clipPath id="clip_11">
<path transform="matrix(1,0,0,-1,0,745.83627)" d="M106.5125 73.35625H999.3125V738.6363H106.5125Z"/>
</clipPath>
<clipPath id="clip_12">
<path transform="matrix(1,0,0,-1,0,745.83627)" d="M106.5125 73.35625H999.3125V738.6363H106.5125Z"/>
</clipPath>
<clipPath id="clip_13">
<path transform="matrix(1,0,0,-1,0,745.83627)" d="M106.5125 73.35625H999.3125V738.6363H106.5125Z"/>
</clipPath>
<clipPath id="clip_14">
<path transform="matrix(1,0,0,-1,0,745.83627)" d="M106.5125 73.35625H999.3125V738.6363H106.5125Z"/>
</clipPath>
<clipPath id="clip_15">
<path transform="matrix(1,0,0,-1,0,745.83627)" d="M106.5125 73.35625H999.3125V738.6363H106.5125Z"/>
</clipPath>
<clipPath id="clip_16">
<path transform="matrix(1,0,0,-1,0,745.83627)" d="M106.5125 73.35625H999.3125V738.6363H106.5125Z"/>
</clipPath>
<clipPath id="clip_17">
<path transform="matrix(1,0,0,-1,0,745.83627)" d="M106.5125 73.35625H999.3125V738.6363H106.5125Z"/>
</clipPath>
<clipPath id="clip_18">
<path transform="matrix(1,0,0,-1,0,745.83627)" d="M106.5125 73.35625H999.3125V738.6363H106.5125Z"/>
</clipPath>
<clipPath id="clip_19">
<path transform="matrix(1,0,0,-1,0,745.83627)" d="M106.5125 73.35625H999.3125V738.6363H106.5125Z"/>
</clipPath>
<clipPath id="clip_20">
<path transform="matrix(.03,0,0,-.03,642.1029,732.40188)" d="M-770-347H2106V1110H-770Z"/>
</clipPath>
<clipPath id="clip_21">
<path transform="matrix(1,0,0,-1,0,745.83627)" d="M106.5125 73.35625H999.3125V738.6363H106.5125Z"/>
</clipPath>
<clipPath id="clip_22">
<path transform="matrix(1,0,0,-1,0,745.83627)" d="M106.5125 73.35625H999.3125V738.6363H106.5125Z"/>
</clipPath>
<clipPath id="clip_23">
<path transform="matrix(1,0,0,-1,0,745.83627)" d="M106.5125 73.35625H999.3125V738.6363H106.5125Z"/>
</clipPath>
<clipPath id="clip_24">
<path transform="matrix(1,0,0,-1,0,745.83627)" d="M106.5125 73.35625H999.3125V738.6363H106.5125Z"/>
</clipPath>
<clipPath id="clip_25">
<path transform="matrix(1,0,0,-1,0,745.83627)" d="M106.5125 73.35625H999.3125V738.6363H106.5125Z"/>
</clipPath>
<clipPath id="clip_26">
<path transform="matrix(1,0,0,-1,0,745.83627)" d="M106.5125 73.35625H999.3125V738.6363H106.5125Z"/>
</clipPath>
<clipPath id="clip_27">
<path transform="matrix(1,0,0,-1,0,745.83627)" d="M106.5125 73.35625H999.3125V738.6363H106.5125Z"/>
</clipPath>
<clipPath id="clip_28">
<path transform="matrix(1,0,0,-1,0,745.83627)" d="M106.5125 73.35625H999.3125V738.6363H106.5125Z"/>
</clipPath>
<clipPath id="clip_29">
<path transform="matrix(0,-.03,-.03,-0,29.996876,316.882)" d="M-770-347H2106V1110H-770Z"/>
</clipPath>
<clipPath id="clip_30">
<path transform="matrix(1,0,0,-1,0,745.83627)" d="M106.5125 73.35625H999.3125V738.6363H106.5125Z"/>
</clipPath>
<clipPath id="clip_31">
<path transform="matrix(1,0,0,-1,0,745.83627)" d="M106.5125 73.35625H999.3125V738.6363H106.5125Z"/>
</clipPath>
<clipPath id="clip_32">
<path transform="matrix(1,0,0,-1,0,745.83627)" d="M106.5125 73.35625H999.3125V738.6363H106.5125Z"/>
</clipPath>
</defs>
<path transform="matrix(1,0,0,-1,0,745.83627)" d="M0 0H1006.5125V745.83627H0Z" fill="#ffffff"/>
<path transform="matrix(1,0,0,-1,0,745.83627)" d="M106.5125 73.35625H999.3125V738.6362H106.5125Z" fill="#ffffff"/>
<g clip-path="url(#clip_0)">
<g clip-path="url(#clip_1)">
<path transform="matrix(1,0,0,-1,147.09432,37.440004)" d="M0-7.071068C1.875269-7.071068 3.673985-6.326016 5-5 6.326016-3.673985 7.071068-1.875269 7.071068 0 7.071068 1.875269 6.326016 3.673985 5 5 3.673985 6.326016 1.875269 7.071068 0 7.071068-1.875269 7.071068-3.673985 6.326016-5 5-6.326016 3.673985-7.071068 1.875269-7.071068 0-7.071068-1.875269-6.326016-3.673985-5-5-3.673985-6.326016-1.875269-7.071068 0-7.071068Z" fill="#0000ff"/>
<path transform="matrix(1,0,0,-1,147.09432,37.440004)" stroke-width="1" stroke-linecap="butt" stroke-linejoin="round" fill="none" stroke="#0000ff" d="M0-7.071068C1.875269-7.071068 3.673985-6.326016 5-5 6.326016-3.673985 7.071068-1.875269 7.071068 0 7.071068 1.875269 6.326016 3.673985 5 5 3.673985 6.326016 1.875269 7.071068 0 7.071068-1.875269 7.071068-3.673985 6.326016-5 5-6.326016 3.673985-7.071068 1.875269-7.071068 0-7.071068-1.875269-6.326016-3.673985-5-5-3.673985-6.326016-1.875269-7.071068 0-7.071068Z"/>
</g>
<g clip-path="url(#clip_2)">
<path transform="matrix(1,0,0,-1,169.43292,224.37819)" d="M0-7.071068C1.875269-7.071068 3.673985-6.326016 5-5 6.326016-3.673985 7.071068-1.875269 7.071068 0 7.071068 1.875269 6.326016 3.673985 5 5 3.673985 6.326016 1.875269 7.071068 0 7.071068-1.875269 7.071068-3.673985 6.326016-5 5-6.326016 3.673985-7.071068 1.875269-7.071068 0-7.071068-1.875269-6.326016-3.673985-5-5-3.673985-6.326016-1.875269-7.071068 0-7.071068Z" fill="#0000ff"/>
<path transform="matrix(1,0,0,-1,169.43292,224.37819)" stroke-width="1" stroke-linecap="butt" stroke-linejoin="round" fill="none" stroke="#0000ff" d="M0-7.071068C1.875269-7.071068 3.673985-6.326016 5-5 6.326016-3.673985 7.071068-1.875269 7.071068 0 7.071068 1.875269 6.326016 3.673985 5 5 3.673985 6.326016 1.875269 7.071068 0 7.071068-1.875269 7.071068-3.673985 6.326016-5 5-6.326016 3.673985-7.071068 1.875269-7.071068 0-7.071068-1.875269-6.326016-3.673985-5-5-3.673985-6.326016-1.875269-7.071068 0-7.071068Z"/>
</g>
<g clip-path="url(#clip_3)">
<path transform="matrix(1,0,0,-1,333.24946,44.77092)" d="M0-7.071068C1.875269-7.071068 3.673985-6.326016 5-5 6.326016-3.673985 7.071068-1.875269 7.071068 0 7.071068 1.875269 6.326016 3.673985 5 5 3.673985 6.326016 1.875269 7.071068 0 7.071068-1.875269 7.071068-3.673985 6.326016-5 5-6.326016 3.673985-7.071068 1.875269-7.071068 0-7.071068-1.875269-6.326016-3.673985-5-5-3.673985-6.326016-1.875269-7.071068 0-7.071068Z" fill="#0000ff"/>
<path transform="matrix(1,0,0,-1,333.24946,44.77092)" stroke-width="1" stroke-linecap="butt" stroke-linejoin="round" fill="none" stroke="#0000ff" d="M0-7.071068C1.875269-7.071068 3.673985-6.326016 5-5 6.326016-3.673985 7.071068-1.875269 7.071068 0 7.071068 1.875269 6.326016 3.673985 5 5 3.673985 6.326016 1.875269 7.071068 0 7.071068-1.875269 7.071068-3.673985 6.326016-5 5-6.326016 3.673985-7.071068 1.875269-7.071068 0-7.071068-1.875269-6.326016-3.673985-5-5-3.673985-6.326016-1.875269-7.071068 0-7.071068Z"/>
</g>
<g clip-path="url(#clip_4)">
<path transform="matrix(1,0,0,-1,333.24946,345.3382)" d="M0-7.071068C1.875269-7.071068 3.673985-6.326016 5-5 6.326016-3.673985 7.071068-1.875269 7.071068 0 7.071068 1.875269 6.326016 3.673985 5 5 3.673985 6.326016 1.875269 7.071068 0 7.071068-1.875269 7.071068-3.673985 6.326016-5 5-6.326016 3.673985-7.071068 1.875269-7.071068 0-7.071068-1.875269-6.326016-3.673985-5-5-3.673985-6.326016-1.875269-7.071068 0-7.071068Z" fill="#0000ff"/>
<path transform="matrix(1,0,0,-1,333.24946,345.3382)" stroke-width="1" stroke-linecap="butt" stroke-linejoin="round" fill="none" stroke="#0000ff" d="M0-7.071068C1.875269-7.071068 3.673985-6.326016 5-5 6.326016-3.673985 7.071068-1.875269 7.071068 0 7.071068 1.875269 6.326016 3.673985 5 5 3.673985 6.326016 1.875269 7.071068 0 7.071068-1.875269 7.071068-3.673985 6.326016-5 5-6.326016 3.673985-7.071068 1.875269-7.071068 0-7.071068-1.875269-6.326016-3.673985-5-5-3.673985-6.326016-1.875269-7.071068 0-7.071068Z"/>
</g>
<g clip-path="url(#clip_5)">
<path transform="matrix(1,0,0,-1,392.8191,499.2873)" d="M0-7.071068C1.875269-7.071068 3.673985-6.326016 5-5 6.326016-3.673985 7.071068-1.875269 7.071068 0 7.071068 1.875269 6.326016 3.673985 5 5 3.673985 6.326016 1.875269 7.071068 0 7.071068-1.875269 7.071068-3.673985 6.326016-5 5-6.326016 3.673985-7.071068 1.875269-7.071068 0-7.071068-1.875269-6.326016-3.673985-5-5-3.673985-6.326016-1.875269-7.071068 0-7.071068Z" fill="#0000ff"/>
<path transform="matrix(1,0,0,-1,392.8191,499.2873)" stroke-width="1" stroke-linecap="butt" stroke-linejoin="round" fill="none" stroke="#0000ff" d="M0-7.071068C1.875269-7.071068 3.673985-6.326016 5-5 6.326016-3.673985 7.071068-1.875269 7.071068 0 7.071068 1.875269 6.326016 3.673985 5 5 3.673985 6.326016 1.875269 7.071068 0 7.071068-1.875269 7.071068-3.673985 6.326016-5 5-6.326016 3.673985-7.071068 1.875269-7.071068 0-7.071068-1.875269-6.326016-3.673985-5-5-3.673985-6.326016-1.875269-7.071068 0-7.071068Z"/>
</g>
<g clip-path="url(#clip_6)">
<path transform="matrix(1,0,0,-1,392.8191,418.64729)" d="M0-7.071068C1.875269-7.071068 3.673985-6.326016 5-5 6.326016-3.673985 7.071068-1.875269 7.071068 0 7.071068 1.875269 6.326016 3.673985 5 5 3.673985 6.326016 1.875269 7.071068 0 7.071068-1.875269 7.071068-3.673985 6.326016-5 5-6.326016 3.673985-7.071068 1.875269-7.071068 0-7.071068-1.875269-6.326016-3.673985-5-5-3.673985-6.326016-1.875269-7.071068 0-7.071068Z" fill="#0000ff"/>
<path transform="matrix(1,0,0,-1,392.8191,418.64729)" stroke-width="1" stroke-linecap="butt" stroke-linejoin="round" fill="none" stroke="#0000ff" d="M0-7.071068C1.875269-7.071068 3.673985-6.326016 5-5 6.326016-3.673985 7.071068-1.875269 7.071068 0 7.071068 1.875269 6.326016 3.673985 5 5 3.673985 6.326016 1.875269 7.071068 0 7.071068-1.875269 7.071068-3.673985 6.326016-5 5-6.326016 3.673985-7.071068 1.875269-7.071068 0-7.071068-1.875269-6.326016-3.673985-5-5-3.673985-6.326016-1.875269-7.071068 0-7.071068Z"/>
</g>
<g clip-path="url(#clip_7)">
<path transform="matrix(1,0,0,-1,899.161,378.32728)" d="M0-7.071068C1.875269-7.071068 3.673985-6.326016 5-5 6.326016-3.673985 7.071068-1.875269 7.071068 0 7.071068 1.875269 6.326016 3.673985 5 5 3.673985 6.326016 1.875269 7.071068 0 7.071068-1.875269 7.071068-3.673985 6.326016-5 5-6.326016 3.673985-7.071068 1.875269-7.071068 0-7.071068-1.875269-6.326016-3.673985-5-5-3.673985-6.326016-1.875269-7.071068 0-7.071068Z" fill="#0000ff"/>
<path transform="matrix(1,0,0,-1,899.161,378.32728)" stroke-width="1" stroke-linecap="butt" stroke-linejoin="round" fill="none" stroke="#0000ff" d="M0-7.071068C1.875269-7.071068 3.673985-6.326016 5-5 6.326016-3.673985 7.071068-1.875269 7.071068 0 7.071068 1.875269 6.326016 3.673985 5 5 3.673985 6.326016 1.875269 7.071068 0 7.071068-1.875269 7.071068-3.673985 6.326016-5 5-6.326016 3.673985-7.071068 1.875269-7.071068 0-7.071068-1.875269-6.326016-3.673985-5-5-3.673985-6.326016-1.875269-7.071068 0-7.071068Z"/>
</g>
<g clip-path="url(#clip_8)">
<path transform="matrix(1,0,0,-1,958.73068,631.24368)" d="M0-7.071068C1.875269-7.071068 3.673985-6.326016 5-5 6.326016-3.673985 7.071068-1.875269 7.071068 0 7.071068 1.875269 6.326016 3.673985 5 5 3.673985 6.326016 1.875269 7.071068 0 7.071068-1.875269 7.071068-3.673985 6.326016-5 5-6.326016 3.673985-7.071068 1.875269-7.071068 0-7.071068-1.875269-6.326016-3.673985-5-5-3.673985-6.326016-1.875269-7.071068 0-7.071068Z" fill="#0000ff"/>
<path transform="matrix(1,0,0,-1,958.73068,631.24368)" stroke-width="1" stroke-linecap="butt" stroke-linejoin="round" fill="none" stroke="#0000ff" d="M0-7.071068C1.875269-7.071068 3.673985-6.326016 5-5 6.326016-3.673985 7.071068-1.875269 7.071068 0 7.071068 1.875269 6.326016 3.673985 5 5 3.673985 6.326016 1.875269 7.071068 0 7.071068-1.875269 7.071068-3.673985 6.326016-5 5-6.326016 3.673985-7.071068 1.875269-7.071068 0-7.071068-1.875269-6.326016-3.673985-5-5-3.673985-6.326016-1.875269-7.071068 0-7.071068Z"/>
</g>
<g clip-path="url(#clip_9)">
<path transform="matrix(1,0,0,-1,958.73068,642.24)" d="M0-7.071068C1.875269-7.071068 3.673985-6.326016 5-5 6.326016-3.673985 7.071068-1.875269 7.071068 0 7.071068 1.875269 6.326016 3.673985 5 5 3.673985 6.326016 1.875269 7.071068 0 7.071068-1.875269 7.071068-3.673985 6.326016-5 5-6.326016 3.673985-7.071068 1.875269-7.071068 0-7.071068-1.875269-6.326016-3.673985-5-5-3.673985-6.326016-1.875269-7.071068 0-7.071068Z" fill="#0000ff"/>
<path transform="matrix(1,0,0,-1,958.73068,642.24)" stroke-width="1" stroke-linecap="butt" stroke-linejoin="round" fill="none" stroke="#0000ff" d="M0-7.071068C1.875269-7.071068 3.673985-6.326016 5-5 6.326016-3.673985 7.071068-1.875269 7.071068 0 7.071068 1.875269 6.326016 3.673985 5 5 3.673985 6.326016 1.875269 7.071068 0 7.071068-1.875269 7.071068-3.673985 6.326016-5 5-6.326016 3.673985-7.071068 1.875269-7.071068 0-7.071068-1.875269-6.326016-3.673985-5-5-3.673985-6.326016-1.875269-7.071068 0-7.071068Z"/>
</g>
</g>
<g clip-path="url(#clip_10)">
<path transform="matrix(1,0,0,-1,0,745.83627)" stroke-width=".8" stroke-linecap="butt" stroke-dasharray="2.96,1.28" stroke-linejoin="round" fill="none" stroke="#d3d3d3" stroke-opacity=".7" d="M124.75571 73.35625V738.6362"/>
</g>
<path transform="matrix(1,0,0,-1,0,745.83627)" d="M124.75571 73.35625V69.85625"/>
<path transform="matrix(1,0,0,-1,0,745.83627)" stroke-width=".8" stroke-linecap="butt" stroke-linejoin="round" fill="none" stroke="#000000" d="M124.75571 73.35625V69.85625"/>
<text xml:space="preserve" transform="matrix(1 0 -0 1 103.583827 699.9956)" font-size="26.666666" font-family="DejaVuSerif"><tspan y="0" x="0 16.960001 25.440003">0.0</tspan></text>
<g clip-path="url(#clip_11)">
<path transform="matrix(1,0,0,-1,0,745.83627)" stroke-width=".8" stroke-linecap="butt" stroke-dasharray="2.96,1.28" stroke-linejoin="round" fill="none" stroke="#d3d3d3" stroke-opacity=".7" d="M220.06713 73.35625V738.6362"/>
</g>
<path transform="matrix(1,0,0,-1,0,745.83627)" d="M220.06713 73.35625V69.85625"/>
<path transform="matrix(1,0,0,-1,0,745.83627)" stroke-width=".8" stroke-linecap="butt" stroke-linejoin="round" fill="none" stroke="#000000" d="M220.06713 73.35625V69.85625"/>
<g clip-path="url(#clip_12)">
<path transform="matrix(1,0,0,-1,0,745.83627)" stroke-width=".8" stroke-linecap="butt" stroke-dasharray="2.96,1.28" stroke-linejoin="round" fill="none" stroke="#d3d3d3" stroke-opacity=".7" d="M315.37855 73.35625V738.6362"/>
</g>
<path transform="matrix(1,0,0,-1,0,745.83627)" d="M315.37855 73.35625V69.85625"/>
<path transform="matrix(1,0,0,-1,0,745.83627)" stroke-width=".8" stroke-linecap="butt" stroke-linejoin="round" fill="none" stroke="#000000" d="M315.37855 73.35625V69.85625"/>
<text xml:space="preserve" transform="matrix(1 0 -0 1 285.7379 699.9956)" font-size="26.666666" font-family="DejaVuSerif"><tspan y="0" x="0 16.960001 25.440003 42.4">0.05</tspan></text>
<g clip-path="url(#clip_13)">
<path transform="matrix(1,0,0,-1,0,745.83627)" stroke-width=".8" stroke-linecap="butt" stroke-dasharray="2.96,1.28" stroke-linejoin="round" fill="none" stroke="#d3d3d3" stroke-opacity=".7" d="M410.68998 73.35625V738.6362"/>
</g>
<path transform="matrix(1,0,0,-1,0,745.83627)" d="M410.68998 73.35625V69.85625"/>
<path transform="matrix(1,0,0,-1,0,745.83627)" stroke-width=".8" stroke-linecap="butt" stroke-linejoin="round" fill="none" stroke="#000000" d="M410.68998 73.35625V69.85625"/>
<g clip-path="url(#clip_14)">
<path transform="matrix(1,0,0,-1,0,745.83627)" stroke-width=".8" stroke-linecap="butt" stroke-dasharray="2.96,1.28" stroke-linejoin="round" fill="none" stroke="#d3d3d3" stroke-opacity=".7" d="M506.0014 73.35625V738.6362"/>
</g>
<path transform="matrix(1,0,0,-1,0,745.83627)" d="M506.0014 73.35625V69.85625"/>
<path transform="matrix(1,0,0,-1,0,745.83627)" stroke-width=".8" stroke-linecap="butt" stroke-linejoin="round" fill="none" stroke="#000000" d="M506.0014 73.35625V69.85625"/>
<text xml:space="preserve" transform="matrix(1 0 -0 1 484.82954 699.9956)" font-size="26.666666" font-family="DejaVuSerif"><tspan y="0" x="0 16.960001 25.440003">0.1</tspan></text>
<g clip-path="url(#clip_15)">
<path transform="matrix(1,0,0,-1,0,745.83627)" stroke-width=".8" stroke-linecap="butt" stroke-dasharray="2.96,1.28" stroke-linejoin="round" fill="none" stroke="#d3d3d3" stroke-opacity=".7" d="M601.3128 73.35625V738.6362"/>
</g>
<path transform="matrix(1,0,0,-1,0,745.83627)" d="M601.3128 73.35625V69.85625"/>
<path transform="matrix(1,0,0,-1,0,745.83627)" stroke-width=".8" stroke-linecap="butt" stroke-linejoin="round" fill="none" stroke="#000000" d="M601.3128 73.35625V69.85625"/>
<g clip-path="url(#clip_16)">
<path transform="matrix(1,0,0,-1,0,745.83627)" stroke-width=".8" stroke-linecap="butt" stroke-dasharray="2.96,1.28" stroke-linejoin="round" fill="none" stroke="#d3d3d3" stroke-opacity=".7" d="M696.62429 73.35625V738.6362"/>
</g>
<path transform="matrix(1,0,0,-1,0,745.83627)" d="M696.62429 73.35625V69.85625"/>
<path transform="matrix(1,0,0,-1,0,745.83627)" stroke-width=".8" stroke-linecap="butt" stroke-linejoin="round" fill="none" stroke="#000000" d="M696.62429 73.35625V69.85625"/>
<text xml:space="preserve" transform="matrix(1 0 -0 1 666.98367 699.9956)" font-size="26.666666" font-family="DejaVuSerif"><tspan y="0" x="0 16.960001 25.440003 42.4">0.15</tspan></text>
<g clip-path="url(#clip_17)">
<path transform="matrix(1,0,0,-1,0,745.83627)" stroke-width=".8" stroke-linecap="butt" stroke-dasharray="2.96,1.28" stroke-linejoin="round" fill="none" stroke="#d3d3d3" stroke-opacity=".7" d="M791.93569 73.35625V738.6362"/>
</g>
<path transform="matrix(1,0,0,-1,0,745.83627)" d="M791.93569 73.35625V69.85625"/>
<path transform="matrix(1,0,0,-1,0,745.83627)" stroke-width=".8" stroke-linecap="butt" stroke-linejoin="round" fill="none" stroke="#000000" d="M791.93569 73.35625V69.85625"/>
<g clip-path="url(#clip_18)">
<path transform="matrix(1,0,0,-1,0,745.83627)" stroke-width=".8" stroke-linecap="butt" stroke-dasharray="2.96,1.28" stroke-linejoin="round" fill="none" stroke="#d3d3d3" stroke-opacity=".7" d="M887.24716 73.35625V738.6362"/>
</g>
<path transform="matrix(1,0,0,-1,0,745.83627)" d="M887.24716 73.35625V69.85625"/>
<path transform="matrix(1,0,0,-1,0,745.83627)" stroke-width=".8" stroke-linecap="butt" stroke-linejoin="round" fill="none" stroke="#000000" d="M887.24716 73.35625V69.85625"/>
<text xml:space="preserve" transform="matrix(1 0 -0 1 866.07528 699.9956)" font-size="26.666666" font-family="DejaVuSerif"><tspan y="0" x="0 16.960001 25.440003">0.2</tspan></text>
<g clip-path="url(#clip_19)">
<path transform="matrix(1,0,0,-1,0,745.83627)" stroke-width=".8" stroke-linecap="butt" stroke-dasharray="2.96,1.28" stroke-linejoin="round" fill="none" stroke="#d3d3d3" stroke-opacity=".7" d="M982.55856 73.35625V738.6362"/>
</g>
<path transform="matrix(1,0,0,-1,0,745.83627)" d="M982.55856 73.35625V69.85625"/>
<path transform="matrix(1,0,0,-1,0,745.83627)" stroke-width=".8" stroke-linecap="butt" stroke-linejoin="round" fill="none" stroke="#000000" d="M982.55856 73.35625V69.85625"/>
<text xml:space="preserve" transform="matrix(1 0 -0 1 438.5922 732.40188)" font-size="30" font-family="DejaVuSerif"><tspan y="0" x="0 22.050002 31.650002 43.710004 59.100004 68.64 87.84 105.6 119.94 129.48001 149.67002 159.27002 176.19002 193.95001">Bits per Pixel</tspan></text>
<g clip-path="url(#clip_20)">
<path transform="matrix(.03,0,0,-.03,642.1029,732.40188)" d="M458 724V95L623 189V184L421-19H417L215 184V189L379 95V724H458Z"/>
</g>
<g clip-path="url(#clip_21)">
<path transform="matrix(1,0,0,-1,0,745.83627)" stroke-width=".8" stroke-linecap="butt" stroke-dasharray="2.96,1.28" stroke-linejoin="round" fill="none" stroke="#d3d3d3" stroke-opacity=".7" d="M106.5125 81.60352H999.3125"/>
</g>
<path transform="matrix(1,0,0,-1,0,745.83627)" d="M106.5125 81.60352H103.0125"/>
<path transform="matrix(1,0,0,-1,0,745.83627)" stroke-width=".8" stroke-linecap="butt" stroke-linejoin="round" fill="none" stroke="#000000" d="M106.5125 81.60352H103.0125"/>
<text xml:space="preserve" transform="matrix(1 0 -0 1 40.23125 674.49057)" font-size="26.666666" font-family="DejaVuSerif"><tspan y="0" x="0 16.960001 25.440003 42.4">0.50</tspan></text>
<g clip-path="url(#clip_22)">
<path transform="matrix(1,0,0,-1,0,745.83627)" stroke-width=".8" stroke-linecap="butt" stroke-dasharray="2.96,1.28" stroke-linejoin="round" fill="none" stroke="#d3d3d3" stroke-opacity=".7" d="M106.5125 173.23989H999.3125"/>
</g>
<path transform="matrix(1,0,0,-1,0,745.83627)" d="M106.5125 173.23989H103.0125"/>
<path transform="matrix(1,0,0,-1,0,745.83627)" stroke-width=".8" stroke-linecap="butt" stroke-linejoin="round" fill="none" stroke="#000000" d="M106.5125 173.23989H103.0125"/>
<text xml:space="preserve" transform="matrix(1 0 -0 1 40.23125 582.8542)" font-size="26.666666" font-family="DejaVuSerif"><tspan y="0" x="0 16.960001 25.440003 42.4">0.75</tspan></text>
<g clip-path="url(#clip_23)">
<path transform="matrix(1,0,0,-1,0,745.83627)" stroke-width=".8" stroke-linecap="butt" stroke-dasharray="2.96,1.28" stroke-linejoin="round" fill="none" stroke="#d3d3d3" stroke-opacity=".7" d="M106.5125 264.87626H999.3125"/>
</g>
<path transform="matrix(1,0,0,-1,0,745.83627)" d="M106.5125 264.87626H103.0125"/>
<path transform="matrix(1,0,0,-1,0,745.83627)" stroke-width=".8" stroke-linecap="butt" stroke-linejoin="round" fill="none" stroke="#000000" d="M106.5125 264.87626H103.0125"/>
<text xml:space="preserve" transform="matrix(1 0 -0 1 40.23125 491.2178)" font-size="26.666666" font-family="DejaVuSerif"><tspan y="0" x="0 16.960001 25.440003 42.4">1.00</tspan></text>
<g clip-path="url(#clip_24)">
<path transform="matrix(1,0,0,-1,0,745.83627)" stroke-width=".8" stroke-linecap="butt" stroke-dasharray="2.96,1.28" stroke-linejoin="round" fill="none" stroke="#d3d3d3" stroke-opacity=".7" d="M106.5125 356.5126H999.3125"/>
</g>
<path transform="matrix(1,0,0,-1,0,745.83627)" d="M106.5125 356.5126H103.0125"/>
<path transform="matrix(1,0,0,-1,0,745.83627)" stroke-width=".8" stroke-linecap="butt" stroke-linejoin="round" fill="none" stroke="#000000" d="M106.5125 356.5126H103.0125"/>
<text xml:space="preserve" transform="matrix(1 0 -0 1 40.23125 399.58146)" font-size="26.666666" font-family="DejaVuSerif"><tspan y="0" x="0 16.960001 25.440003 42.4">1.25</tspan></text>
<g clip-path="url(#clip_25)">
<path transform="matrix(1,0,0,-1,0,745.83627)" stroke-width=".8" stroke-linecap="butt" stroke-dasharray="2.96,1.28" stroke-linejoin="round" fill="none" stroke="#d3d3d3" stroke-opacity=".7" d="M106.5125 448.149H999.3125"/>
</g>
<path transform="matrix(1,0,0,-1,0,745.83627)" d="M106.5125 448.149H103.0125"/>
<path transform="matrix(1,0,0,-1,0,745.83627)" stroke-width=".8" stroke-linecap="butt" stroke-linejoin="round" fill="none" stroke="#000000" d="M106.5125 448.149H103.0125"/>
<text xml:space="preserve" transform="matrix(1 0 -0 1 40.23125 307.94508)" font-size="26.666666" font-family="DejaVuSerif"><tspan y="0" x="0 16.960001 25.440003 42.4">1.50</tspan></text>
<g clip-path="url(#clip_26)">
<path transform="matrix(1,0,0,-1,0,745.83627)" stroke-width=".8" stroke-linecap="butt" stroke-dasharray="2.96,1.28" stroke-linejoin="round" fill="none" stroke="#d3d3d3" stroke-opacity=".7" d="M106.5125 539.78536H999.3125"/>
</g>
<path transform="matrix(1,0,0,-1,0,745.83627)" d="M106.5125 539.78536H103.0125"/>
<path transform="matrix(1,0,0,-1,0,745.83627)" stroke-width=".8" stroke-linecap="butt" stroke-linejoin="round" fill="none" stroke="#000000" d="M106.5125 539.78536H103.0125"/>
<text xml:space="preserve" transform="matrix(1 0 -0 1 40.23125 216.30872)" font-size="26.666666" font-family="DejaVuSerif"><tspan y="0" x="0 16.960001 25.440003 42.4">1.75</tspan></text>
<g clip-path="url(#clip_27)">
<path transform="matrix(1,0,0,-1,0,745.83627)" stroke-width=".8" stroke-linecap="butt" stroke-dasharray="2.96,1.28" stroke-linejoin="round" fill="none" stroke="#d3d3d3" stroke-opacity=".7" d="M106.5125 631.4217H999.3125"/>
</g>
<path transform="matrix(1,0,0,-1,0,745.83627)" d="M106.5125 631.4217H103.0125"/>
<path transform="matrix(1,0,0,-1,0,745.83627)" stroke-width=".8" stroke-linecap="butt" stroke-linejoin="round" fill="none" stroke="#000000" d="M106.5125 631.4217H103.0125"/>
<text xml:space="preserve" transform="matrix(1 0 -0 1 40.23125 124.67236)" font-size="26.666666" font-family="DejaVuSerif"><tspan y="0" x="0 16.960001 25.440003 42.4">2.00</tspan></text>
<g clip-path="url(#clip_28)">
<path transform="matrix(1,0,0,-1,0,745.83627)" stroke-width=".8" stroke-linecap="butt" stroke-dasharray="2.96,1.28" stroke-linejoin="round" fill="none" stroke="#d3d3d3" stroke-opacity=".7" d="M106.5125 723.05807H999.3125"/>
</g>
<path transform="matrix(1,0,0,-1,0,745.83627)" d="M106.5125 723.05807H103.0125"/>
<path transform="matrix(1,0,0,-1,0,745.83627)" stroke-width=".8" stroke-linecap="butt" stroke-linejoin="round" fill="none" stroke="#000000" d="M106.5125 723.05807H103.0125"/>
<text xml:space="preserve" transform="matrix(1 0 -0 1 40.23125 33.03601)" font-size="26.666666" font-family="DejaVuSerif"><tspan y="0" x="0 16.960001 25.440003 42.4">2.25</tspan></text>
<text xml:space="preserve" transform="matrix(0 -1 1 0 29.996876 387.94157)" font-size="30" font-family="DejaVuSerif"><tspan y="0" x="0 14.34 35.16 47.010004">rFID</tspan></text>
<g clip-path="url(#clip_29)">
<path transform="matrix(0,-.03,-.03,-0,29.996876,316.882)" d="M458 724V95L623 189V184L421-19H417L215 184V189L379 95V724H458Z"/>
</g>
<g clip-path="url(#clip_30)">
<path transform="matrix(1,0,0,-1,0,745.83627)" stroke-width="1.5" stroke-linecap="square" stroke-linejoin="round" fill="none" stroke="#ff0000" d="M392.8191 246.54898"/>
<path transform="matrix(1,0,0,-1,0,745.83627)" d="M392.8191 264.04899 388.8901 251.95677H376.1756L386.46186 244.48339 382.53285 232.39118 392.8191 239.86458 403.10533 232.39118 399.17634 244.48339 409.4626 251.95677H396.74809Z" fill="#ff0000"/>
<path transform="matrix(1,0,0,-1,0,745.83627)" stroke-width="1" stroke-linecap="butt" stroke-linejoin="bevel" fill="none" stroke="#ff0000" d="M392.8191 264.04899 388.8901 251.95677H376.1756L386.46186 244.48339 382.53285 232.39118 392.8191 239.86458 403.10533 232.39118 399.17634 244.48339 409.4626 251.95677H396.74809Z"/>
</g>
<g clip-path="url(#clip_31)">
<path transform="matrix(1,0,0,-1,0,745.83627)" stroke-width="1.5" stroke-linecap="square" stroke-linejoin="round" fill="none" stroke="#ff0000" d="M958.73068 103.59625"/>
<path transform="matrix(1,0,0,-1,0,745.83627)" d="M958.73068 121.09625 954.8017 109.00404H942.0872L952.3734 101.530658 948.44448 89.43845 958.73068 96.91184 969.0169 89.43845 965.08798 101.530658 975.37417 109.00404H962.65969Z" fill="#ff0000"/>
<path transform="matrix(1,0,0,-1,0,745.83627)" stroke-width="1" stroke-linecap="butt" stroke-linejoin="bevel" fill="none" stroke="#ff0000" d="M958.73068 121.09625 954.8017 109.00404H942.0872L952.3734 101.530658 948.44448 89.43845 958.73068 96.91184 969.0169 89.43845 965.08798 101.530658 975.37417 109.00404H962.65969Z"/>
</g>
<g clip-path="url(#clip_32)">
<path transform="matrix(1,0,0,-1,0,745.83627)" stroke-width="4" stroke-linecap="butt" stroke-dasharray="4,6.6" stroke-linejoin="round" fill="none" stroke="#0000ff" stroke-opacity=".3" d="M147.09432 421.44557 155.29267 418.3715 163.49102 415.29743 171.68936 412.22337 179.88771 409.1493 188.08606 406.07524 196.28441 403.00117 204.48274 399.92707 212.68109 396.853 220.87944 393.77894 229.07779 390.70487 237.27614 387.6308 245.47449 384.55674 253.67284 381.48268 261.8712 378.4086 270.06953 375.3345 278.26789 372.26045 286.46623 369.18638 294.66456 366.1123 302.8629 363.03825 311.06126 359.96418 319.2596 356.8901 327.45796 353.816 335.6563 350.74195 343.85466 347.66789 352.053 344.5938 360.25135 341.51976 368.44969 338.44569 376.64805 335.3716 384.84638 332.29753 393.04475 329.22346 401.24308 326.14939 409.44145 323.07533 417.63978 320.00126 425.83815 316.9272 434.03648 313.85313 442.2348 310.77906 450.43318 307.70497 458.6315 304.6309 466.82987 301.55683 475.0282 298.48277 483.22657 295.4087 491.4249 292.33464 499.62324 289.26057 507.8216 286.18647 516.01998 283.1124 524.21829 280.03834 532.4166 276.96427 540.615 273.8902 548.81338 270.81614 557.01168 267.74208 565.21 264.668 573.4084 261.5939 581.6067 258.51985 589.80508 255.44577 598.0034 252.3717 606.2018 249.29764 614.4001 246.22356 622.59848 243.14949 630.7968 240.07543 638.9951 237.00136 647.1935 233.92728 655.39187 230.85321 663.5902 227.77915 671.7885 224.70508 679.9869 221.631 688.18527 218.55693 696.38357 215.48287 704.5819 212.4088 712.7803 209.33472 720.97866 206.26065 729.17697 203.18659 737.3753 200.1125 745.57369 197.03844 753.77206 193.96437 761.97036 190.8903 770.1687 187.81623 778.36709 184.74216 786.56539 181.66809 794.76376 178.59403 802.9621 175.51995 811.16049 172.44588 819.35879 169.37181 827.5571 166.29775 835.7555 163.22367 843.9538 160.1496 852.15219 157.07553 860.3505 154.00145 868.5489 150.92739 876.7472 147.85332 884.94558 144.77925 893.1439 141.70517 901.3422 138.6311 909.5406 135.55704 917.73898 132.48297 925.9373 129.40889 934.1356 126.33482 942.334 123.26076 950.53237 120.18668 958.73068 117.11262"/>
</g>
<path transform="matrix(1,0,0,-1,0,745.83627)" stroke-width=".8" stroke-linecap="square" stroke-miterlimit="10" stroke-linejoin="miter" fill="none" stroke="#000000" d="M106.5125 73.35625V738.6362"/>
<path transform="matrix(1,0,0,-1,0,745.83627)" stroke-width=".8" stroke-linecap="square" stroke-miterlimit="10" stroke-linejoin="miter" fill="none" stroke="#000000" d="M999.3125 73.35625V738.6362"/>
<path transform="matrix(1,0,0,-1,0,745.83627)" stroke-width=".8" stroke-linecap="square" stroke-miterlimit="10" stroke-linejoin="miter" fill="none" stroke="#000000" d="M106.5125 73.35625H999.3125"/>
<path transform="matrix(1,0,0,-1,0,745.83627)" stroke-width=".8" stroke-linecap="square" stroke-miterlimit="10" stroke-linejoin="miter" fill="none" stroke="#000000" d="M106.5125 738.6362H999.3125"/>
<text xml:space="preserve" transform="matrix(1 0 -0 1 108.96975 77.76001)" font-size="30" font-family="DejaVuSerif"><tspan y="0" x="0 20.010003 29.610003 47.291879 65.35188 83.01626 93.15626 113.07626 123.21626 142.29627">TiTok-L-32</tspan></text>
<text xml:space="preserve" transform="matrix(1 0 -0 1 173.24539 224.37818)" font-size="30" font-family="DejaVuSerif"><tspan y="0" x="0 20.010003 29.610003 47.291879 65.35188 83.01626 93.15626 115.753139 125.893138 144.97315">TiTok-B-64</tspan></text>
<text xml:space="preserve" transform="matrix(1 0 -0 1 340.87437 53.93451)" font-size="30" font-family="DejaVuSerif"><tspan y="0" x="0 19.920002 29.520003 47.4 75.840007 93.72 117.69 135.45 154.77 164.91 183.99">LlamaGen-16</tspan></text>
<text xml:space="preserve" transform="matrix(1 0 -0 1 337.0619 345.33818)" font-size="30" font-family="DejaVuSerif"><tspan y="0" x="0 30.720002 48.600004 63.99 82.17 104.22 113.82">MaskBiT</tspan></text>
<text xml:space="preserve" transform="matrix(1 0 -0 1 411.88139 510.28364)" font-size="30" font-family="DejaVuSerif"><tspan y="0" x="0 20.82 30.42 48.480005 74.16 104.880008 122.94 133.08 154.74 164.28 175.98 194.04 213.36 227.7 243.09">FlowMo-A (ours)</tspan></text>
<text xml:space="preserve" transform="matrix(1 0 -0 1 396.63154 418.64729)" font-size="30" font-family="DejaVuSerif"><tspan y="0" x="0 24.600003 43.800004 61.560007 80.880008 111.600009 129.48001 148.68001 169.82439 179.4244 195.57501 203.54314 225.20314">OpenMagViT-V2</tspan></text>
<text xml:space="preserve" transform="matrix(1 0 -0 1 720.36428 378.32728)" font-size="30" font-family="DejaVuSerif"><tspan y="0" x="0 21.144377 30.744378 46.895006 54.86313 76.52313 101.12314 125.09314 146.75315">ViT-VQGAN</tspan></text>
<text xml:space="preserve" transform="matrix(1 0 -0 1 746.0745 616.5818)" font-size="30" font-family="DejaVuSerif"><tspan y="0" x="0 19.920002 29.520003 47.4 75.840007 93.72 117.69 135.45 154.77 164.91 183.99">LlamaGen-32</tspan></text>
<text xml:space="preserve" transform="matrix(1 0 -0 1 697.8245 656.9018)" font-size="30" font-family="DejaVuSerif"><tspan y="0" x="0 20.82 30.42 48.480005 74.16 104.880008 122.94 133.08 155.13 164.67002 176.37001 194.43001 213.75002 228.09001 243.48001">FlowMo-B (ours)</tspan></text>
</svg>
